<?xml version="1.0" encoding="utf-8"?>
<!-- Generator: Adobe Illustrator 16.0.0, SVG Export Plug-In . SVG Version: 6.00 Build 0)  -->
<!DOCTYPE svg PUBLIC "-//W3C//DTD SVG 1.1//EN" "http://www.w3.org/Graphics/SVG/1.1/DTD/svg11.dtd">
<svg version="1.1"
	 id="svg2" xmlns:dc="http://purl.org/dc/elements/1.1/" xmlns:cc="http://creativecommons.org/ns#" xmlns:rdf="http://www.w3.org/1999/02/22-rdf-syntax-ns#" xmlns:svg="http://www.w3.org/2000/svg" xmlns:sodipodi="http://sodipodi.sourceforge.net/DTD/sodipodi-0.dtd" xmlns:inkscape="http://www.inkscape.org/namespaces/inkscape" sodipodi:docname="facebook.svg" inkscape:version="0.47 r22583" sodipodi:version="0.32" inkscape:output_extension="org.inkscape.output.svg.inkscape"
	 xmlns="http://www.w3.org/2000/svg" xmlns:xlink="http://www.w3.org/1999/xlink" x="0px" y="0px" width="40px" height="40.001px"
	 viewBox="0 0 40 40.001" enable-background="new 0 0 40 40.001" xml:space="preserve">
<title  id="title2910">facebook web</title>
<sodipodi:namedview  showgrid="false" inkscape:cy="64.459739" inkscape:cx="204.60201" inkscape:zoom="0.98994949" borderopacity="1.0" bordercolor="#666666" pagecolor="#ffffff" id="base" inkscape:window-maximized="0" inkscape:window-y="193" inkscape:window-x="1" inkscape:window-height="762" inkscape:window-width="682" inkscape:current-layer="layer1" inkscape:document-units="px" inkscape:pageshadow="2" inkscape:pageopacity="0.0">
	</sodipodi:namedview>
<g id="layer1" transform="translate(-373.642,-318.344)" inkscape:label="Layer 1" inkscape:groupmode="layer">
	
		<path id="rect1942" inkscape:export-ydpi="7.7063322" inkscape:export-xdpi="7.7063322" inkscape:export-filename="C:\Documents and Settings\Molumen\Desktop\path3511111.png" fill="#7D7F6A" d="
		M407.628,318.344h-27.973c-3.321,0-6.014,2.693-6.014,6.015v27.972c0,3.321,2.692,6.015,6.014,6.015h27.973
		c3.321,0,6.014-2.693,6.014-6.015v-27.972C413.642,321.037,410.95,318.344,407.628,318.344z"/>
	
		<path id="path1950" sodipodi:nodetypes="ccccsssc" inkscape:export-ydpi="7.7063322" inkscape:export-xdpi="7.7063322" inkscape:export-filename="C:\Documents and Settings\Molumen\Desktop\path3511111.png" opacity="0.3004" fill="#7D7F6A" enable-background="new    " d="
		M403.075,320.054h-18.865c-4.994,0-9.014,4.052-9.014,9.087v18.405c0.163,3.93,0.784,1.445,1.967-2.906
		c1.375-5.058,5.855-9.479,11.31-12.792c4.164-2.528,8.824-4.143,17.308-4.297C410.59,327.465,410.165,321.308,403.075,320.054z"/>
	<g id="Layer_3" transform="matrix(1.7982054,0,0,1.8129643,376.63343,326.35613)">
		<path id="path3336" fill="#3F4035" d="M13.502,15.228H9.914V6.542H8.121V3.549h1.793V1.751c0-2.441,1.012-3.894,3.888-3.894h2.395
			v2.994H14.7c-1.119,0-1.194,0.418-1.194,1.199l-0.004,1.499h2.712l-0.317,2.993h-2.395V15.228z"/>
	</g>
</g>
</svg>
