<?xml version="1.0" encoding="utf-8"?>
<!-- Generator: Adobe Illustrator 16.0.0, SVG Export Plug-In . SVG Version: 6.00 Build 0)  -->
<!DOCTYPE svg PUBLIC "-//W3C//DTD SVG 1.1//EN" "http://www.w3.org/Graphics/SVG/1.1/DTD/svg11.dtd">
<svg version="1.1" id="Layer_1" xmlns="http://www.w3.org/2000/svg" xmlns:xlink="http://www.w3.org/1999/xlink" x="0px" y="0px"
	 width="41px" height="40px" viewBox="0 0 41 40" enable-background="new 0 0 41 40" xml:space="preserve">
<path fill-rule="evenodd" clip-rule="evenodd" fill="#7D7F6A" d="M20.506,0C9.182,0,0,9.179,0,20.506
	c0,9.062,5.875,16.749,14.026,19.459c1.025,0.192,1.399-0.446,1.399-0.986c0-0.487-0.018-1.776-0.028-3.489
	c-5.705,1.236-6.909-2.752-6.909-2.752c-0.932-2.369-2.276-2.995-2.276-2.995c-1.861-1.272,0.143-1.248,0.143-1.248
	c2.058,0.146,3.14,2.112,3.14,2.112c1.829,3.136,4.799,2.23,5.968,1.708c0.187-1.33,0.718-2.23,1.301-2.747
	c-4.554-0.517-9.341-2.275-9.341-10.13c0-2.241,0.801-4.07,2.113-5.504c-0.212-0.518-0.915-2.606,0.201-5.429
	c0,0,1.721-0.552,5.64,2.102c1.634-0.452,3.387-0.685,5.135-0.69c1.738,0.006,3.49,0.238,5.131,0.69
	c3.916-2.653,5.635-2.102,5.635-2.102c1.117,2.822,0.416,4.911,0.203,5.429c1.314,1.434,2.107,3.263,2.107,5.504
	c0,7.872-4.795,9.607-9.363,10.119c0.736,0.627,1.393,1.88,1.393,3.791c0,2.745-0.025,4.957-0.025,5.631
	c0,0.546,0.371,1.185,1.412,0.981c8.141-2.712,14.01-10.393,14.01-19.454C41.014,9.179,31.832,0,20.506,0z"/>
</svg>
