<?xml version="1.0" encoding="utf-8"?>
<!-- Generator: Adobe Illustrator 16.0.0, SVG Export Plug-In . SVG Version: 6.00 Build 0)  -->
<!DOCTYPE svg PUBLIC "-//W3C//DTD SVG 1.1//EN" "http://www.w3.org/Graphics/SVG/1.1/DTD/svg11.dtd">
<svg version="1.1" id="Layer_1" xmlns="http://www.w3.org/2000/svg" xmlns:xlink="http://www.w3.org/1999/xlink" x="0px" y="0px"
	 width="41px" height="41px" viewBox="0.5 -0.5 41 41" enable-background="new 0.5 -0.5 41 41" xml:space="preserve">
<path fill="#7D7F6A" d="M34.333,0H7.667C4,0,1,3,1,6.667v26.665C1,37.002,4,40,7.667,40h26.665C38,40,41,37.002,41,33.333V6.667
	C41,3,38,0,34.333,0z M13.296,33.487H7.248V15.287h6.049V33.487z M10.272,12.803h-0.04c-2.03,0-3.343-1.398-3.343-3.146
	c0-1.785,1.353-3.145,3.422-3.145c2.069,0,3.343,1.359,3.382,3.145C13.694,11.404,12.381,12.803,10.272,12.803z M35.11,33.487
	h-6.049V23.75c0-2.446-0.875-4.115-3.064-4.115c-1.672,0-2.667,1.126-3.104,2.212c-0.16,0.389-0.199,0.932-0.199,1.476v10.164h-6.05
	c0,0,0.08-16.492,0-18.2h6.05v2.578c0.803-1.239,2.24-3.006,5.452-3.006c3.981,0,6.965,2.602,6.965,8.192V33.487L35.11,33.487z"/>
</svg>
