<?xml version="1.0" encoding="utf-8"?>
<!-- Generator: Adobe Illustrator 16.0.0, SVG Export Plug-In . SVG Version: 6.00 Build 0)  -->
<!DOCTYPE svg PUBLIC "-//W3C//DTD SVG 1.1//EN" "http://www.w3.org/Graphics/SVG/1.1/DTD/svg11.dtd">
<svg version="1.1" id="Layer_1" xmlns="http://www.w3.org/2000/svg" xmlns:xlink="http://www.w3.org/1999/xlink" x="0px" y="0px"
	 width="188.584px" height="169.334px" viewBox="0 0 188.584 169.334" enable-background="new 0 0 188.584 169.334"
	 xml:space="preserve">
<g>
	<g>
		<path fill="none" d="M-4.417,133.333c0-53.667,0.041-107.332-0.098-160.999c-0.008-3.425,0.674-4.104,4.098-4.097
			c63.998,0.132,128.001,0.132,192.001,0c3.426-0.007,4.104,0.672,4.099,4.097C195.55,35.667,195.585,99,195.585,162.333
			c-2.746-1.557-3.184-4.505-4.293-7.062c-1.643-3.78-2.127-8.059-5.094-11.274c-2.871-3.115-5.914-6.256-1.18-10.399
			c0.983-0.863,0.953-2.609-0.218-3.606c-1.006-0.859-1.825,0.12-2.469,0.856c-2.513,2.881-4.459,1.574-7.119-0.246
			c-9.481-6.502-19.231-12.438-31.168-13.631c-6.096-0.609-12.075-2.338-18.147-3.312c-3.053-0.492-4.965-3.051-7.465-3.895
			c-4.777-1.613-7.396,1.739-5.896,7.256c3.629,13.357,4.117,26.926,3.078,40.604c-0.42,5.518-1.002,5.65-5.596,2.729
			c-3.869-2.463-7.822-5.172-11.033,1.01c-0.486,0.934-1.883,1.863-3.014,1.18c-2.831-1.711-4.245,0.59-6.069,1.82
			c9.211-8.354,12.862-19.358,15.276-31.715c-6.703,3.109-12.458,0.36-18.235-1.465c-1.674-0.527-4.572-1.072-4.242-3.359
			c0.275-1.908,3.078-1.404,4.77-1.914c1.75-0.529,3.543-0.93,5.334-1.291c2.197-0.443,5.703,0.275,5.943-2.367
			c0.266-2.969-3.434-1.32-5.162-2.303c-1.188-0.674-2.605-1.143-2.568-2.703c0.051-2.146,1.93-1.998,3.35-2.121
			c3.096-0.27,5.973-1.15,9.235-2.482c-3.104-1.599-5.84,0.118-8.396-0.74c-0.775-0.262-1.729-0.435-1.898-1.371
			c-0.178-0.976,0.615-1.455,1.381-1.834c1.321-0.65,2.852-0.879,3.752-2.297c2.008-3.166,0.906-5.689-3.533-8.354
			c-2.029-1.219-5.031-1.317-5.51-4.476c-0.18-1.174,0.744-3.076-1.346-3.121c-2.004-0.041-2.719,1.777-3.02,3.439
			c-0.291,1.621-0.676,3.432-0.248,4.941c2.211,7.824-4.414,10.072-8.65,13.49c-3.611,2.91-5.234-2.109-7.961-3.058
			c-0.932-0.323-1.801-0.872-2.648-1.396c-2.729-1.682-4.75-4.312-4.672-7.291c0.109-4.213-1.783-7.303-3.795-10.565
			c-1.045-1.692-2.098-3.455-2.705-5.328c-1.367-4.218,0.832-6.538,5.133-5.587c1.295,0.287,2.572,0.719,3.803,1.217
			c2.891,1.173,5.299,1.618,8.24-0.754c3.217-2.598,8.9-1.316,11.824,1.624c1.104,1.111,1.811,3.322,3.828,2.502
			c1.891-0.768,2.045-2.924,2.193-4.739c0.479-5.835-3.33-9.633-10.73-10.488c-5.172-0.598-10.295,0.176-15.4,1.059
			c-1.723,0.299-4.74,0.734-4.391-1.598c0.766-5.097-0.439-10.563,3.291-15.247c6.232-7.822,14.529-11.424,23.998-12.92
			c6.131-0.968,12.145-2.078,17.411-5.676c1.608-1.1,3.77-1.729,4.856,0.301c2.728,5.088,7.151,9.515,7.522,15.585
			c0.92,15.026,4.629,30.012,0.849,45.142c-0.709,2.844-0.324,5.493,3.166,7.42c-0.226-3.738,2.227-5.529,4.073-7.812
			c3.763-4.648,8.006-9.364,3.224-15.898c-0.756-1.033-1.021-3.06,0.299-3.608c3.408-1.416,2.463-4.121,2.019-6.325
			c-1.556-7.657-2.002-15.697-3.638-23.024c-3.409-15.289-12.088-28.476-26.713-36.219C92.415,6.031,84.55,6.008,77.259,4.167
			c-8.053-2.033-14.271-0.819-20.15,4.624c-1.309,1.212-3.191,1.781-4.719,2.787C41.508,18.757,29.567,24.8,24.854,38.396
			c-2.973,8.579-6.291,17.373-2.549,26.176c2.484,5.847,4.666,11.702,6.334,17.787c0.898,3.273,1.746,6.412,6.554,4.217
			c-1.303,3.694-2.354,6.675-3.395,9.622c-1.455-0.137-0.64-2.803-2.875-2.17c1.596,5,3.007,9.871,8.628,12.01
			c2.988,1.137,5.508,1.412,8.492-0.303c1.828-1.051,4.44-1.508,6.03,1.375c1.451,2.631,0.512,3.916-1.584,5.779
			c-9.099,8.086-20.571,10.853-31.756,13.312C10.725,127.96,2.785,129.228-4.417,133.333z M114.585,66.918
			c-5.012-0.898-9.266-0.01-12.881,3.109c-1.387,1.198-2.959,3.296-0.617,4.462c3.164,1.575,6.713,1.104,10.133-0.186
			c2.963-1.115,1.873-2.666,1.148-4.651C111.878,68.309,114.345,68.705,114.585,66.918z M164.651,6.168
			c0.463,3.423,0.977,6.841,1.356,10.272c0.115,1.046,0.863,2.495-0.655,3.053c-1.033,0.379-1.752-0.72-2.455-1.367
			c-4.099-3.764-8.168-7.558-13.062-12.099c4.541,9.482,12.715,13.876,19.66,20.884C169.015,19.105,166.692,12.734,164.651,6.168z"
			/>
		<path fill="#3F4035" d="M-4.417,133.333c7.201-4.105,15.142-5.373,23.151-7.133c11.186-2.459,22.658-5.225,31.756-13.312
			c2.096-1.863,3.035-3.147,1.584-5.779c-1.59-2.883-4.202-2.426-6.03-1.375c-2.984,1.716-5.504,1.439-8.492,0.304
			c-5.621-2.14-7.033-7.011-8.628-12.011c2.234-0.633,1.42,2.033,2.875,2.17c1.041-2.946,2.092-5.926,3.395-9.621
			c-4.808,2.195-5.656-0.943-6.554-4.217c-1.668-6.085-3.85-11.94-6.334-17.787c-3.742-8.803-0.424-17.597,2.549-26.176
			C29.567,24.8,41.508,18.757,52.39,11.578c1.527-1.006,3.41-1.575,4.719-2.787c5.879-5.443,12.098-6.657,20.15-4.624
			C84.55,6.008,92.415,6.031,99.212,9.63c14.625,7.743,23.303,20.93,26.713,36.219c1.635,7.327,2.082,15.367,3.637,23.024
			c0.445,2.204,1.392,4.909-2.018,6.325c-1.32,0.549-1.055,2.575-0.299,3.608c4.783,6.534,0.539,11.25-3.223,15.898
			c-1.849,2.283-4.299,4.074-4.074,7.812c-3.49-1.927-3.875-4.576-3.166-7.42c3.781-15.13,0.072-30.115-0.848-45.142
			c-0.371-6.07-4.797-10.497-7.523-15.585c-1.088-2.029-3.248-1.4-4.857-0.301c-5.266,3.598-11.279,4.708-17.41,5.676
			c-9.469,1.496-17.766,5.098-23.998,12.92c-3.73,4.684-2.525,10.15-3.291,15.247c-0.35,2.332,2.668,1.896,4.391,1.598
			c5.105-0.883,10.229-1.656,15.4-1.059c7.4,0.855,11.209,4.653,10.73,10.488c-0.148,1.815-0.303,3.972-2.193,4.739
			c-2.018,0.82-2.725-1.391-3.828-2.502c-2.924-2.94-8.607-4.222-11.824-1.624c-2.941,2.372-5.35,1.927-8.24,0.754
			c-1.23-0.498-2.508-0.93-3.803-1.217c-4.301-0.951-6.5,1.369-5.133,5.587c0.607,1.873,1.66,3.636,2.705,5.328
			c2.012,3.263,3.904,6.353,3.795,10.565c-0.078,2.979,1.943,5.609,4.672,7.291c0.848,0.522,1.717,1.072,2.648,1.396
			c2.727,0.947,4.35,5.968,7.961,3.058c4.236-3.418,10.861-5.666,8.65-13.49c-0.428-1.51-0.043-3.32,0.248-4.941
			c0.301-1.663,1.016-3.48,3.02-3.439c2.09,0.045,1.166,1.947,1.346,3.121c0.479,3.156,3.48,3.256,5.51,4.476
			c4.438,2.664,5.541,5.188,3.532,8.354c-0.899,1.418-2.432,1.646-3.751,2.297c-0.766,0.379-1.559,0.858-1.381,1.834
			c0.17,0.938,1.123,1.108,1.898,1.371c2.557,0.858,5.291-0.857,8.396,0.739c-3.265,1.333-6.142,2.214-9.236,2.483
			c-1.42,0.123-3.299-0.025-3.35,2.121c-0.037,1.561,1.381,2.029,2.568,2.703c1.729,0.981,5.429-0.666,5.162,2.303
			c-0.24,2.643-3.746,1.924-5.943,2.367c-1.791,0.361-3.584,0.762-5.334,1.291c-1.691,0.51-4.494,0.006-4.77,1.914
			c-0.33,2.287,2.568,2.832,4.242,3.358c5.777,1.826,11.531,4.575,18.234,1.466c-2.414,12.355-6.064,23.361-15.252,31.692
			c-1.426,1.041-2.637,2.31-3.344,3.995c-2.332,0-4.666,0-7,0c-2.369-3.809-4.631-7.689-7.152-11.396
			c-1.354-1.992-3.309-4.904-5.783-3.496c-4.084,2.322-5.277-0.537-6.453-2.85c-5.127-10.086-7.953-20.722-6.805-32.177
			c0.119-1.187,1.057-2.481-0.598-3.972c-0.906,2.877-1.799,5.492-2.553,8.146c-3.302,11.611-4.253,23.525-4.362,35.537
			c-0.012,1.121-0.246,2.561,1.061,3.082c1.021,0.408,1.775-0.66,2.564-1.227c1.212-0.875,2.353-1.865,3.62-2.651
			c3.48-2.154,6.701-2.556,9.648,1.124c2.002,2.494,4.65,4.133,7.896,4.916c2.656,0.643,4.697,2.408,5.916,4.962
			c-25.723,0-51.444-0.045-77.167,0.062c-2.873,0.014-4.027-0.326-3.936-3.699C-4.237,154.246-4.417,143.787-4.417,133.333z
			 M99.06,137.42c-4.712,1.101-9.246,1.104-11.928,5.281c-1.311,2.043-2.594,4.103-0.27,6.147c2.039,1.797,4.32,1.439,6.352-0.104
			c3.088-2.344,5.164-5.512,6.82-8.971C100.823,138.125,100.536,137.187,99.06,137.42z"/>
		<path fill="#3F4035" d="M86.583,168.332c0.707-1.687,1.918-2.954,3.344-3.995c1.801-1.209,3.215-3.51,6.045-1.799
			c1.131,0.684,2.527-0.246,3.014-1.18c3.211-6.182,7.164-3.473,11.033-1.01c4.594,2.924,5.176,2.789,5.597-2.729
			c1.038-13.678,0.551-27.245-3.078-40.604c-1.5-5.517,1.119-8.869,5.896-7.256c2.5,0.844,4.412,3.401,7.465,3.895
			c6.072,0.976,12.054,2.703,18.148,3.312c11.936,1.193,21.686,7.129,31.168,13.631c2.66,1.82,4.607,3.127,7.119,0.246
			c0.643-0.736,1.463-1.717,2.469-0.856c1.17,0.997,1.201,2.743,0.217,3.606c-4.733,4.145-1.69,7.284,1.181,10.399
			c2.967,3.217,3.45,7.494,5.094,11.274c1.108,2.558,1.547,5.506,4.293,7.062c1.13,5.129-0.86,6.191-6,6.148
			C155.251,168.19,120.919,168.332,86.583,168.332z"/>
		<path fill="none" d="M76.583,168.332c-1.219-2.554-3.26-4.319-5.916-4.962c-3.246-0.783-5.895-2.422-7.896-4.916
			c-2.947-3.68-6.168-3.278-9.648-1.124c-1.268,0.786-2.408,1.776-3.62,2.651c-0.789,0.565-1.543,1.635-2.564,1.227
			c-1.307-0.521-1.072-1.961-1.061-3.082c0.109-12.011,1.061-23.925,4.362-35.537c0.754-2.654,1.646-5.27,2.553-8.146
			c1.654,1.488,0.717,2.785,0.598,3.972c-1.148,11.455,1.678,22.091,6.805,32.177c1.176,2.312,2.369,5.172,6.453,2.85
			c2.475-1.407,4.43,1.504,5.783,3.496c2.521,3.707,4.783,7.59,7.152,11.396C78.583,168.332,77.583,168.332,76.583,168.332z"/>
		<path fill="#3F4035" d="M114.585,66.918c-0.24,1.787-2.707,1.391-2.217,2.734c0.725,1.985,1.814,3.536-1.148,4.651
			c-3.42,1.289-6.969,1.761-10.133,0.186c-2.342-1.166-0.77-3.264,0.617-4.462C105.319,66.908,109.573,66.02,114.585,66.918z"/>
		<path d="M164.651,6.168c2.041,6.566,4.363,12.938,4.844,20.743c-6.945-7.008-15.119-11.401-19.66-20.884
			c4.895,4.541,8.965,8.335,13.062,12.099c0.703,0.647,1.422,1.746,2.455,1.367c1.52-0.558,0.771-2.007,0.655-3.053
			C165.628,13.009,165.114,9.591,164.651,6.168z"/>
		<path fill="none" d="M99.06,137.42c1.478-0.233,1.765,0.705,0.976,2.354c-1.656,3.459-3.732,6.627-6.82,8.972
			c-2.031,1.543-4.312,1.899-6.352,0.104c-2.324-2.047-1.041-4.105,0.27-6.148C89.813,138.522,94.347,138.521,99.06,137.42z"/>
	</g>
</g>
<path fill="#FF0000" d="M620-302c-100.289,0-259.333-9.812-259.333-16"/>
<path fill="none" d="M360.667-318c1.289,0,3.333,0,3.333,0"/>
<rect x="142.668" fill="#FFFFFF" width="37.998" height="35.334"/>
<rect x="7.334" y="31.334" fill="#FFFFFF" width="15.333" height="64"/>
</svg>
