<?xml version="1.0" encoding="utf-8"?>
<!-- Generator: Adobe Illustrator 16.0.0, SVG Export Plug-In . SVG Version: 6.00 Build 0)  -->
<!DOCTYPE svg PUBLIC "-//W3C//DTD SVG 1.1//EN" "http://www.w3.org/Graphics/SVG/1.1/DTD/svg11.dtd">
<svg version="1.1" id="Layer_1" xmlns="http://www.w3.org/2000/svg" xmlns:xlink="http://www.w3.org/1999/xlink" x="0px" y="0px"
	 width="200.094px" height="200.094px" viewBox="-0.047 -0.047 200.094 200.094"
	 enable-background="new -0.047 -0.047 200.094 200.094" xml:space="preserve">
<path fill="#FFFFFF" stroke="#FFFFFF" stroke-width="0.0938" d="M0,0h96.625c-3,0.812-6.125,1.312-8.875,2.688
	C85,4.5,82.125,6.188,79.812,8.5C56.375,32,32.938,55.438,9.5,78.875C4.562,83.688,1,89.875,0,96.75V0z"/>
<path fill="#010102" stroke="#010102" stroke-width="0.0938" d="M96.625,0h6.625c3.625,0.938,7.562,1.438,10.562,3.75
	c2.188,1.438,4.499,2.875,6.374,4.75c23.626,23.688,47.313,47.312,71.001,71C195.75,84.188,199,90.188,200,96.688v6.938
	c-0.812,2.812-1.312,5.688-2.562,8.312c-1.938,3-3.75,6.125-6.313,8.562c-23.437,23.5-46.937,46.938-70.374,70.438
	C116,195.625,110,199,103.375,200h-6.688c-6.5-1-12.438-4.25-17.125-8.75c-23.75-23.812-47.5-47.5-71.25-71.312
	c-1.812-1.812-3.188-4.062-4.625-6.188c-2.25-2.938-2.625-6.688-3.688-10.125V96.75c1-6.875,4.562-13.062,9.5-17.875
	C32.938,55.438,56.375,32,79.812,8.5c2.312-2.312,5.188-4,7.938-5.812C90.5,1.312,93.625,0.812,96.625,0z"/>
<path fill="#FFFFFF" stroke="#FFFFFF" stroke-width="0.0938" d="M103.25,0H200v96.688c-1-6.5-4.25-12.5-8.812-17.188
	c-23.688-23.688-47.375-47.312-71-71c-1.875-1.875-4.188-3.312-6.375-4.75C110.812,1.438,106.875,0.938,103.25,0z"/>
<path fill="#7D7F6A" d="M81.812,16.125c5.5-5.438,13.562-8.688,21.312-7.312c6.062,0.438,11.562,3.75,15.75,7.938
	c21.438,21.5,42.938,42.938,64.375,64.438c2.062,2.75,4.5,5.438,5.562,8.812c1.938,4.25,1.875,9.125,1.312,13.688
	c-0.562,5.312-3.938,9.624-7.375,13.438c-22.312,22.25-44.625,44.562-66.875,66.875c-1.626,1.438-3.625,2.188-5.5,3.188
	c-3.125,1.875-6.938,1.75-10.375,2.562c-3.062-0.688-6.188-0.812-9.125-1.938c-2.438-1.25-5.063-2.188-7.062-4.125
	C62.25,162.062,40.687,140.562,19.125,119c-2.188-2-3.938-4.438-5.875-6.75C9.375,106.875,9,99.937,9.937,93.624
	c1.125-4.875,3.938-9.062,7.125-12.812C38.688,59.25,60.188,37.688,81.812,16.125z"/>
<path fill="#010102" stroke="#010102" stroke-width="0.0938" d="M102.688,54c2.812-0.5,6.062-0.125,8.125,2
	c2.312,2.062,3.812,5.438,2.938,8.5c-0.312,3.312-3.188,5.875-6.25,6.688c-5.562,1.938-12.312-3.438-11.312-9.375
	C96.875,58.375,99.375,55.25,102.688,54z"/>
<path fill="#010102" stroke="#010102" stroke-width="0.0938" d="M63.188,73.625c0.625-2.188,1.375-4.562,3.5-5.75
	c6.562,0.062,13.062,0.062,19.562,0.062c1.312-0.062,2.562,0.25,3.812,0.5c2.562,4.125,5.688,7.875,8.375,11.938
	c1.375,2.062,2.688,4.688,1.438,7.125c-3.625,6.688-7.375,13.312-10.938,20.062c8.188,6.001,15.75,12.75,23.938,18.688
	c2.375-2.562,5.376-5.375,9.126-4.5c1.374,0.5,3,0.688,3.999,1.812c1.313,1.438,2.438,3.062,3.312,4.812
	c1.313-0.625,3.001-0.875,4.312-0.125c2.25,1.438,3.375,4.188,3.438,6.75c1.375,0.625,2.5,1.5,3.25,2.75
	c3.5-0.25,6.188,2.312,7.562,5.249c-15.562,0.125-31.062-0.062-46.625,0.188c-3.812-0.375-7.688,0.312-11.562-0.25
	c0.812-0.938,1.5-2,2.188-3.062c1.812-0.812,3.688-1.688,5.75-1.688c1.062-0.249,2.125-0.625,1.625-2
	c1.062-1.625,2.438-3.438,4.688-3c1.188-2.375,3.125-4.25,5.438-5.562c-7-5.75-14.062-11.375-21.062-17.125
	c-0.312-0.812-1.375-0.249-1.125,0.376c1.562,1.687,3.375,3.562,3.25,6c0.125,1.562-1,2.875-1.562,4.251
	c-1.812,4.312-4.438,8.312-6.5,12.5c-1.25,2.624-2.625,5.25-4.125,7.75c-1.625,1.25-4.062,2.125-6.062,1.187
	c-1.25-0.938-2-2.375-2.438-3.813c1.25-4.562,3.938-8.438,5.688-12.812c1.375-3,2.938-5.938,4.375-8.875
	c-3.688-4.562-7.312-9.187-11.188-13.625c-0.062,4.625,0.188,9.312-0.062,13.938c-1.812,7.251-3.812,14.5-5.688,21.813
	c-0.562,3.062-4.812,4.75-7.312,2.687c-2.25-1.187-1.75-4-1.625-6.125c1.438-5.875,2.938-11.688,4.375-17.563
	c0.25-7-0.125-13.999,0.188-21c0-2.812,2.875-3.875,4.25-5.875c-1.5-0.5-2.562-1.75-2.5-3.312c-1.438-1-2.75-2.188-4.312-3
	c-0.625-1.312,0.25-2.375,1.438-2.812c1.062,1,2.25,1.875,3.438,2.625C61.625,81.125,62.312,77.375,63.188,73.625z"/>
<path fill="#7D7F6A" d="M70.625,77.062c2.25,0.062,4.438,0.062,6.625,0.062c-2.688,2.875-5.75,5.438-8.312,8.438
	C69.25,82.688,70.062,79.938,70.625,77.062z"/>
<path fill="#7D7F6A" d="M76.688,97.5c3.438-1.562,6.875-3,10.312-4.562c-1.25,3.188-3.375,5.812-4.625,8.938
	C80.375,100.5,78.438,99.125,76.688,97.5z"/>
<path fill="#FFFFFF" stroke="#FFFFFF" stroke-width="0.0938" d="M0,103.625c1.062,3.438,1.438,7.188,3.688,10.125
	c1.438,2.125,2.812,4.375,4.625,6.188c23.75,23.812,47.5,47.5,71.25,71.312c4.688,4.5,10.625,7.75,17.125,8.75H0V103.625z"/>
<path fill="#FFFFFF" stroke="#FFFFFF" stroke-width="0.0938" d="M197.438,111.938c1.25-2.625,1.75-5.5,2.562-8.312V200h-96.625
	c6.625-1,12.625-4.375,17.375-9.062c23.438-23.5,46.938-46.938,70.375-70.438C193.688,118.062,195.5,114.938,197.438,111.938z"/>
</svg>
